<mxfile host="app.diagrams.net" modified="2022-04-11T15:48:46.169Z" agent="5.0 (Windows NT 10.0; Win64; x64) AppleWebKit/537.36 (KHTML, like Gecko) Chrome/100.0.4896.75 Safari/537.36" etag="bgP9NPqaiKuB3Z-foz62" version="17.4.2" type="github">
  <diagram id="C5RBs43oDa-KdzZeNtuy" name="GestiÃ³n de usuarios">
    <mxGraphModel dx="1185" dy="635" grid="1" gridSize="10" guides="1" tooltips="1" connect="1" arrows="1" fold="1" page="1" pageScale="1" pageWidth="827" pageHeight="1169" background="none" math="0" shadow="0">
      <root>
        <mxCell id="WIyWlLk6GJQsqaUBKTNV-0" />
        <mxCell id="WIyWlLk6GJQsqaUBKTNV-1" parent="WIyWlLk6GJQsqaUBKTNV-0" />
        <mxCell id="nik7G5Et6VOTFQyGORWH-28" value="Usuarios" style="shape=table;startSize=40;container=1;collapsible=1;childLayout=tableLayout;fixedRows=1;rowLines=0;fontStyle=1;align=center;resizeLast=1;labelBackgroundColor=#333333;labelBorderColor=#333333;fontSize=14;fillColor=#333333;html=1;strokeColor=#333333;fontColor=#ffffff;" vertex="1" parent="WIyWlLk6GJQsqaUBKTNV-1">
          <mxGeometry x="280" y="240" width="240" height="230" as="geometry">
            <mxRectangle x="296" y="240" width="90" height="30" as="alternateBounds" />
          </mxGeometry>
        </mxCell>
        <mxCell id="nik7G5Et6VOTFQyGORWH-217" value="" style="shape=tableRow;horizontal=0;startSize=0;swimlaneHead=0;swimlaneBody=0;fillColor=none;collapsible=0;dropTarget=0;points=[[0,0.5],[1,0.5]];portConstraint=eastwest;top=0;left=0;right=0;bottom=1;labelBackgroundColor=none;labelBorderColor=none;fontSize=12;fontColor=#000000;strokeColor=#333333;html=1;" vertex="1" parent="nik7G5Et6VOTFQyGORWH-28">
          <mxGeometry y="40" width="240" height="30" as="geometry" />
        </mxCell>
        <mxCell id="nik7G5Et6VOTFQyGORWH-218" value="PK varchar(20)" style="shape=partialRectangle;connectable=0;fillColor=none;top=0;left=0;bottom=0;right=0;fontStyle=1;overflow=hidden;labelBackgroundColor=none;labelBorderColor=none;fontSize=12;fontColor=#000000;strokeColor=#333333;html=1;" vertex="1" parent="nik7G5Et6VOTFQyGORWH-217">
          <mxGeometry width="100" height="30" as="geometry">
            <mxRectangle width="100" height="30" as="alternateBounds" />
          </mxGeometry>
        </mxCell>
        <mxCell id="nik7G5Et6VOTFQyGORWH-219" value="No. Empleado" style="shape=partialRectangle;connectable=0;fillColor=none;top=0;left=0;bottom=0;right=0;align=left;spacingLeft=6;fontStyle=5;overflow=hidden;labelBackgroundColor=none;labelBorderColor=none;fontSize=12;fontColor=#000000;strokeColor=#333333;html=1;" vertex="1" parent="nik7G5Et6VOTFQyGORWH-217">
          <mxGeometry x="100" width="140" height="30" as="geometry">
            <mxRectangle width="140" height="30" as="alternateBounds" />
          </mxGeometry>
        </mxCell>
        <mxCell id="nik7G5Et6VOTFQyGORWH-35" value="" style="shape=tableRow;horizontal=0;startSize=0;swimlaneHead=0;swimlaneBody=0;fillColor=none;collapsible=0;dropTarget=0;points=[[0,0.5],[1,0.5]];portConstraint=eastwest;top=0;left=0;right=0;bottom=0;labelBackgroundColor=#FFFFFF;labelBorderColor=none;fontSize=14;fontColor=#000000;html=1;" vertex="1" parent="nik7G5Et6VOTFQyGORWH-28">
          <mxGeometry y="70" width="240" height="22" as="geometry" />
        </mxCell>
        <mxCell id="nik7G5Et6VOTFQyGORWH-36" value="&lt;font style=&quot;font-size: 12px&quot;&gt;varchar(255)&lt;/font&gt;" style="shape=partialRectangle;connectable=0;fillColor=none;top=0;left=0;bottom=0;right=0;editable=1;overflow=hidden;labelBackgroundColor=#FFFFFF;labelBorderColor=none;fontSize=14;fontColor=#000000;html=1;" vertex="1" parent="nik7G5Et6VOTFQyGORWH-35">
          <mxGeometry width="100" height="22" as="geometry">
            <mxRectangle width="100" height="22" as="alternateBounds" />
          </mxGeometry>
        </mxCell>
        <mxCell id="nik7G5Et6VOTFQyGORWH-37" value="&lt;font style=&quot;font-size: 12px&quot;&gt;Nombre&lt;/font&gt;" style="shape=partialRectangle;connectable=0;fillColor=none;top=0;left=0;bottom=0;right=0;align=left;spacingLeft=6;overflow=hidden;labelBackgroundColor=#FFFFFF;labelBorderColor=none;fontSize=14;fontColor=#000000;html=1;" vertex="1" parent="nik7G5Et6VOTFQyGORWH-35">
          <mxGeometry x="100" width="140" height="22" as="geometry">
            <mxRectangle width="140" height="22" as="alternateBounds" />
          </mxGeometry>
        </mxCell>
        <mxCell id="nik7G5Et6VOTFQyGORWH-38" value="" style="shape=tableRow;horizontal=0;startSize=0;swimlaneHead=0;swimlaneBody=0;fillColor=none;collapsible=0;dropTarget=0;points=[[0,0.5],[1,0.5]];portConstraint=eastwest;top=0;left=0;right=0;bottom=0;labelBackgroundColor=#FFFFFF;labelBorderColor=none;fontSize=14;fontColor=#000000;html=1;" vertex="1" parent="nik7G5Et6VOTFQyGORWH-28">
          <mxGeometry y="92" width="240" height="22" as="geometry" />
        </mxCell>
        <mxCell id="nik7G5Et6VOTFQyGORWH-39" value="&lt;font style=&quot;font-size: 12px&quot;&gt;varchar(255)&lt;/font&gt;" style="shape=partialRectangle;connectable=0;fillColor=none;top=0;left=0;bottom=0;right=0;editable=1;overflow=hidden;labelBackgroundColor=#FFFFFF;labelBorderColor=none;fontSize=14;fontColor=#000000;html=1;" vertex="1" parent="nik7G5Et6VOTFQyGORWH-38">
          <mxGeometry width="100" height="22" as="geometry">
            <mxRectangle width="100" height="22" as="alternateBounds" />
          </mxGeometry>
        </mxCell>
        <mxCell id="nik7G5Et6VOTFQyGORWH-40" value="&lt;font style=&quot;font-size: 12px&quot;&gt;Apellido Paterno&lt;/font&gt;" style="shape=partialRectangle;connectable=0;fillColor=none;top=0;left=0;bottom=0;right=0;align=left;spacingLeft=6;overflow=hidden;labelBackgroundColor=#FFFFFF;labelBorderColor=none;fontSize=14;fontColor=#000000;html=1;" vertex="1" parent="nik7G5Et6VOTFQyGORWH-38">
          <mxGeometry x="100" width="140" height="22" as="geometry">
            <mxRectangle width="140" height="22" as="alternateBounds" />
          </mxGeometry>
        </mxCell>
        <mxCell id="nik7G5Et6VOTFQyGORWH-85" value="" style="shape=tableRow;horizontal=0;startSize=0;swimlaneHead=0;swimlaneBody=0;fillColor=none;collapsible=0;dropTarget=0;points=[[0,0.5],[1,0.5]];portConstraint=eastwest;top=0;left=0;right=0;bottom=0;labelBackgroundColor=#FFFFFF;labelBorderColor=none;fontSize=14;fontColor=#000000;html=1;" vertex="1" parent="nik7G5Et6VOTFQyGORWH-28">
          <mxGeometry y="114" width="240" height="22" as="geometry" />
        </mxCell>
        <mxCell id="nik7G5Et6VOTFQyGORWH-86" value="&lt;font style=&quot;font-size: 12px&quot;&gt;varchar(255)&lt;/font&gt;" style="shape=partialRectangle;connectable=0;fillColor=none;top=0;left=0;bottom=0;right=0;editable=1;overflow=hidden;labelBackgroundColor=#FFFFFF;labelBorderColor=none;fontSize=14;fontColor=#000000;html=1;" vertex="1" parent="nik7G5Et6VOTFQyGORWH-85">
          <mxGeometry width="100" height="22" as="geometry">
            <mxRectangle width="100" height="22" as="alternateBounds" />
          </mxGeometry>
        </mxCell>
        <mxCell id="nik7G5Et6VOTFQyGORWH-87" value="&lt;font style=&quot;font-size: 12px&quot;&gt;Apellido Materno&lt;/font&gt;" style="shape=partialRectangle;connectable=0;fillColor=none;top=0;left=0;bottom=0;right=0;align=left;spacingLeft=6;overflow=hidden;labelBackgroundColor=#FFFFFF;labelBorderColor=none;fontSize=14;fontColor=#000000;html=1;" vertex="1" parent="nik7G5Et6VOTFQyGORWH-85">
          <mxGeometry x="100" width="140" height="22" as="geometry">
            <mxRectangle width="140" height="22" as="alternateBounds" />
          </mxGeometry>
        </mxCell>
        <mxCell id="nik7G5Et6VOTFQyGORWH-88" value="" style="shape=tableRow;horizontal=0;startSize=0;swimlaneHead=0;swimlaneBody=0;fillColor=none;collapsible=0;dropTarget=0;points=[[0,0.5],[1,0.5]];portConstraint=eastwest;top=0;left=0;right=0;bottom=0;labelBackgroundColor=#FFFFFF;labelBorderColor=none;fontSize=14;fontColor=#000000;html=1;" vertex="1" parent="nik7G5Et6VOTFQyGORWH-28">
          <mxGeometry y="136" width="240" height="22" as="geometry" />
        </mxCell>
        <mxCell id="nik7G5Et6VOTFQyGORWH-89" value="&lt;font style=&quot;font-size: 12px&quot;&gt;varchar(512)&lt;/font&gt;" style="shape=partialRectangle;connectable=0;fillColor=none;top=0;left=0;bottom=0;right=0;editable=1;overflow=hidden;labelBackgroundColor=#FFFFFF;labelBorderColor=none;fontSize=14;fontColor=#000000;html=1;" vertex="1" parent="nik7G5Et6VOTFQyGORWH-88">
          <mxGeometry width="100" height="22" as="geometry">
            <mxRectangle width="100" height="22" as="alternateBounds" />
          </mxGeometry>
        </mxCell>
        <mxCell id="nik7G5Et6VOTFQyGORWH-90" value="&lt;font style=&quot;font-size: 12px&quot;&gt;Correo&lt;/font&gt;" style="shape=partialRectangle;connectable=0;fillColor=none;top=0;left=0;bottom=0;right=0;align=left;spacingLeft=6;overflow=hidden;labelBackgroundColor=#FFFFFF;labelBorderColor=none;fontSize=14;fontColor=#000000;html=1;" vertex="1" parent="nik7G5Et6VOTFQyGORWH-88">
          <mxGeometry x="100" width="140" height="22" as="geometry">
            <mxRectangle width="140" height="22" as="alternateBounds" />
          </mxGeometry>
        </mxCell>
        <mxCell id="nik7G5Et6VOTFQyGORWH-91" value="" style="shape=tableRow;horizontal=0;startSize=0;swimlaneHead=0;swimlaneBody=0;fillColor=none;collapsible=0;dropTarget=0;points=[[0,0.5],[1,0.5]];portConstraint=eastwest;top=0;left=0;right=0;bottom=0;labelBackgroundColor=#FFFFFF;labelBorderColor=none;fontSize=14;fontColor=#000000;html=1;" vertex="1" parent="nik7G5Et6VOTFQyGORWH-28">
          <mxGeometry y="158" width="240" height="22" as="geometry" />
        </mxCell>
        <mxCell id="nik7G5Et6VOTFQyGORWH-92" value="&lt;font style=&quot;font-size: 12px&quot;&gt;varchar(128)&lt;/font&gt;" style="shape=partialRectangle;connectable=0;fillColor=none;top=0;left=0;bottom=0;right=0;editable=1;overflow=hidden;labelBackgroundColor=#FFFFFF;labelBorderColor=none;fontSize=14;fontColor=#000000;html=1;" vertex="1" parent="nik7G5Et6VOTFQyGORWH-91">
          <mxGeometry width="100" height="22" as="geometry">
            <mxRectangle width="100" height="22" as="alternateBounds" />
          </mxGeometry>
        </mxCell>
        <mxCell id="nik7G5Et6VOTFQyGORWH-93" value="&lt;font style=&quot;font-size: 12px&quot;&gt;ContraseÃ±a&lt;/font&gt;" style="shape=partialRectangle;connectable=0;fillColor=none;top=0;left=0;bottom=0;right=0;align=left;spacingLeft=6;overflow=hidden;labelBackgroundColor=#FFFFFF;labelBorderColor=none;fontSize=14;fontColor=#000000;html=1;" vertex="1" parent="nik7G5Et6VOTFQyGORWH-91">
          <mxGeometry x="100" width="140" height="22" as="geometry">
            <mxRectangle width="140" height="22" as="alternateBounds" />
          </mxGeometry>
        </mxCell>
        <mxCell id="nik7G5Et6VOTFQyGORWH-94" value="" style="shape=tableRow;horizontal=0;startSize=0;swimlaneHead=0;swimlaneBody=0;fillColor=none;collapsible=0;dropTarget=0;points=[[0,0.5],[1,0.5]];portConstraint=eastwest;top=0;left=0;right=0;bottom=0;labelBackgroundColor=#FFFFFF;labelBorderColor=none;fontSize=14;fontColor=#000000;html=1;" vertex="1" parent="nik7G5Et6VOTFQyGORWH-28">
          <mxGeometry y="180" width="240" height="22" as="geometry" />
        </mxCell>
        <mxCell id="nik7G5Et6VOTFQyGORWH-95" value="&lt;font style=&quot;font-size: 12px&quot;&gt;varchar(255)&lt;/font&gt;" style="shape=partialRectangle;connectable=0;fillColor=none;top=0;left=0;bottom=0;right=0;editable=1;overflow=hidden;labelBackgroundColor=#FFFFFF;labelBorderColor=none;fontSize=14;fontColor=#000000;html=1;" vertex="1" parent="nik7G5Et6VOTFQyGORWH-94">
          <mxGeometry width="100" height="22" as="geometry">
            <mxRectangle width="100" height="22" as="alternateBounds" />
          </mxGeometry>
        </mxCell>
        <mxCell id="nik7G5Et6VOTFQyGORWH-96" value="&lt;font style=&quot;font-size: 12px&quot;&gt;Foto&lt;/font&gt;" style="shape=partialRectangle;connectable=0;fillColor=none;top=0;left=0;bottom=0;right=0;align=left;spacingLeft=6;overflow=hidden;labelBackgroundColor=#FFFFFF;labelBorderColor=none;fontSize=14;fontColor=#000000;html=1;" vertex="1" parent="nik7G5Et6VOTFQyGORWH-94">
          <mxGeometry x="100" width="140" height="22" as="geometry">
            <mxRectangle width="140" height="22" as="alternateBounds" />
          </mxGeometry>
        </mxCell>
        <mxCell id="nik7G5Et6VOTFQyGORWH-97" value="" style="shape=tableRow;horizontal=0;startSize=0;swimlaneHead=0;swimlaneBody=0;fillColor=none;collapsible=0;dropTarget=0;points=[[0,0.5],[1,0.5]];portConstraint=eastwest;top=0;left=0;right=0;bottom=0;labelBackgroundColor=#FFFFFF;labelBorderColor=none;fontSize=14;fontColor=#000000;html=1;" vertex="1" parent="nik7G5Et6VOTFQyGORWH-28">
          <mxGeometry y="202" width="240" height="22" as="geometry" />
        </mxCell>
        <mxCell id="nik7G5Et6VOTFQyGORWH-98" value="&lt;font style=&quot;font-size: 12px&quot;&gt;bit&lt;/font&gt;" style="shape=partialRectangle;connectable=0;fillColor=none;top=0;left=0;bottom=0;right=0;editable=1;overflow=hidden;labelBackgroundColor=#FFFFFF;labelBorderColor=none;fontSize=14;fontColor=#000000;html=1;" vertex="1" parent="nik7G5Et6VOTFQyGORWH-97">
          <mxGeometry width="100" height="22" as="geometry">
            <mxRectangle width="100" height="22" as="alternateBounds" />
          </mxGeometry>
        </mxCell>
        <mxCell id="nik7G5Et6VOTFQyGORWH-99" value="&lt;font style=&quot;font-size: 12px&quot;&gt;Activo&lt;/font&gt;" style="shape=partialRectangle;connectable=0;fillColor=none;top=0;left=0;bottom=0;right=0;align=left;spacingLeft=6;overflow=hidden;labelBackgroundColor=#FFFFFF;labelBorderColor=none;fontSize=14;fontColor=#000000;html=1;" vertex="1" parent="nik7G5Et6VOTFQyGORWH-97">
          <mxGeometry x="100" width="140" height="22" as="geometry">
            <mxRectangle width="140" height="22" as="alternateBounds" />
          </mxGeometry>
        </mxCell>
        <mxCell id="nik7G5Et6VOTFQyGORWH-188" value="&lt;font style=&quot;font-size: 14px&quot;&gt;Usuarios_Rol&lt;/font&gt;" style="shape=table;startSize=30;container=1;collapsible=1;childLayout=tableLayout;fixedRows=1;rowLines=0;fontStyle=1;align=center;resizeLast=1;labelBackgroundColor=none;labelBorderColor=none;fontSize=12;fontColor=#000000;strokeColor=#333333;fillColor=#E6E6E6;gradientColor=none;html=1;" vertex="1" parent="WIyWlLk6GJQsqaUBKTNV-1">
          <mxGeometry x="580" y="80" width="200" height="80" as="geometry" />
        </mxCell>
        <mxCell id="nik7G5Et6VOTFQyGORWH-192" value="" style="shape=tableRow;horizontal=0;startSize=0;swimlaneHead=0;swimlaneBody=0;fillColor=none;collapsible=0;dropTarget=0;points=[[0,0.5],[1,0.5]];portConstraint=eastwest;top=0;left=0;right=0;bottom=0;labelBackgroundColor=none;labelBorderColor=#333333;fontSize=12;fontColor=#000000;strokeColor=#333333;html=1;" vertex="1" parent="nik7G5Et6VOTFQyGORWH-188">
          <mxGeometry y="30" width="200" height="22" as="geometry" />
        </mxCell>
        <mxCell id="nik7G5Et6VOTFQyGORWH-193" value="&lt;b&gt;FK &lt;/b&gt;varchar(20)" style="shape=partialRectangle;connectable=0;fillColor=none;top=0;left=0;bottom=0;right=0;editable=1;overflow=hidden;labelBackgroundColor=none;labelBorderColor=none;fontSize=12;fontColor=#000000;strokeColor=#333333;html=1;" vertex="1" parent="nik7G5Et6VOTFQyGORWH-192">
          <mxGeometry width="100" height="22" as="geometry">
            <mxRectangle width="100" height="22" as="alternateBounds" />
          </mxGeometry>
        </mxCell>
        <mxCell id="nik7G5Et6VOTFQyGORWH-194" value="No. Empleado" style="shape=partialRectangle;connectable=0;fillColor=none;top=0;left=0;bottom=0;right=0;align=left;spacingLeft=6;overflow=hidden;labelBackgroundColor=none;labelBorderColor=none;fontSize=12;fontColor=#000000;strokeColor=#333333;html=1;" vertex="1" parent="nik7G5Et6VOTFQyGORWH-192">
          <mxGeometry x="100" width="100" height="22" as="geometry">
            <mxRectangle width="100" height="22" as="alternateBounds" />
          </mxGeometry>
        </mxCell>
        <mxCell id="nik7G5Et6VOTFQyGORWH-201" value="" style="shape=tableRow;horizontal=0;startSize=0;swimlaneHead=0;swimlaneBody=0;fillColor=none;collapsible=0;dropTarget=0;points=[[0,0.5],[1,0.5]];portConstraint=eastwest;top=0;left=0;right=0;bottom=0;labelBackgroundColor=none;labelBorderColor=#333333;fontSize=12;fontColor=#000000;strokeColor=#333333;html=1;" vertex="1" parent="nik7G5Et6VOTFQyGORWH-188">
          <mxGeometry y="52" width="200" height="22" as="geometry" />
        </mxCell>
        <mxCell id="nik7G5Et6VOTFQyGORWH-202" value="&lt;b&gt;FK&lt;/b&gt;&amp;nbsp;UUID" style="shape=partialRectangle;connectable=0;fillColor=none;top=0;left=0;bottom=0;right=0;editable=1;overflow=hidden;labelBackgroundColor=none;labelBorderColor=none;fontSize=12;fontColor=#000000;strokeColor=#333333;html=1;" vertex="1" parent="nik7G5Et6VOTFQyGORWH-201">
          <mxGeometry width="100" height="22" as="geometry">
            <mxRectangle width="100" height="22" as="alternateBounds" />
          </mxGeometry>
        </mxCell>
        <mxCell id="nik7G5Et6VOTFQyGORWH-203" value="ID Rol" style="shape=partialRectangle;connectable=0;fillColor=none;top=0;left=0;bottom=0;right=0;align=left;spacingLeft=6;overflow=hidden;labelBackgroundColor=none;labelBorderColor=none;fontSize=12;fontColor=#000000;strokeColor=#333333;html=1;" vertex="1" parent="nik7G5Et6VOTFQyGORWH-201">
          <mxGeometry x="100" width="100" height="22" as="geometry">
            <mxRectangle width="100" height="22" as="alternateBounds" />
          </mxGeometry>
        </mxCell>
        <mxCell id="nik7G5Et6VOTFQyGORWH-205" value="" style="edgeStyle=entityRelationEdgeStyle;fontSize=12;html=1;endArrow=ERzeroToMany;endFill=1;rounded=0;fontColor=#000000;exitX=1;exitY=0.5;exitDx=0;exitDy=0;entryX=0;entryY=0.5;entryDx=0;entryDy=0;" edge="1" parent="WIyWlLk6GJQsqaUBKTNV-1" source="nik7G5Et6VOTFQyGORWH-29" target="nik7G5Et6VOTFQyGORWH-192">
          <mxGeometry width="100" height="100" relative="1" as="geometry">
            <mxPoint x="530" y="380" as="sourcePoint" />
            <mxPoint x="630" y="280" as="targetPoint" />
          </mxGeometry>
        </mxCell>
        <mxCell id="nik7G5Et6VOTFQyGORWH-207" value="&lt;font style=&quot;font-size: 14px&quot;&gt;Roles&lt;/font&gt;" style="shape=table;startSize=30;container=1;collapsible=1;childLayout=tableLayout;fixedRows=1;rowLines=0;fontStyle=1;align=center;resizeLast=1;labelBackgroundColor=none;labelBorderColor=none;fontSize=12;strokeColor=#82b366;fillColor=#d5e8d4;html=1;" vertex="1" parent="WIyWlLk6GJQsqaUBKTNV-1">
          <mxGeometry x="580" y="200" width="200" height="90" as="geometry" />
        </mxCell>
        <mxCell id="nik7G5Et6VOTFQyGORWH-214" value="" style="shape=tableRow;horizontal=0;startSize=0;swimlaneHead=0;swimlaneBody=0;fillColor=none;collapsible=0;dropTarget=0;points=[[0,0.5],[1,0.5]];portConstraint=eastwest;top=0;left=0;right=0;bottom=1;labelBackgroundColor=none;labelBorderColor=none;fontSize=14;fontColor=#000000;strokeColor=#333333;html=1;" vertex="1" parent="nik7G5Et6VOTFQyGORWH-207">
          <mxGeometry y="30" width="200" height="30" as="geometry" />
        </mxCell>
        <mxCell id="nik7G5Et6VOTFQyGORWH-215" value="&lt;font style=&quot;font-size: 12px&quot;&gt;PK UUID&lt;/font&gt;" style="shape=partialRectangle;connectable=0;fillColor=none;top=0;left=0;bottom=0;right=0;fontStyle=1;overflow=hidden;labelBackgroundColor=none;labelBorderColor=none;fontSize=14;fontColor=#000000;strokeColor=#333333;html=1;" vertex="1" parent="nik7G5Et6VOTFQyGORWH-214">
          <mxGeometry width="100" height="30" as="geometry">
            <mxRectangle width="100" height="30" as="alternateBounds" />
          </mxGeometry>
        </mxCell>
        <mxCell id="nik7G5Et6VOTFQyGORWH-216" value="&lt;span style=&quot;font-size: 12px&quot;&gt;ID Rol&lt;/span&gt;" style="shape=partialRectangle;connectable=0;fillColor=none;top=0;left=0;bottom=0;right=0;align=left;spacingLeft=6;fontStyle=5;overflow=hidden;labelBackgroundColor=none;labelBorderColor=none;fontSize=14;fontColor=#000000;strokeColor=#333333;html=1;" vertex="1" parent="nik7G5Et6VOTFQyGORWH-214">
          <mxGeometry x="100" width="100" height="30" as="geometry">
            <mxRectangle width="100" height="30" as="alternateBounds" />
          </mxGeometry>
        </mxCell>
        <mxCell id="nik7G5Et6VOTFQyGORWH-208" value="" style="shape=tableRow;horizontal=0;startSize=0;swimlaneHead=0;swimlaneBody=0;fillColor=none;collapsible=0;dropTarget=0;points=[[0,0.5],[1,0.5]];portConstraint=eastwest;top=0;left=0;right=0;bottom=0;labelBackgroundColor=none;labelBorderColor=#333333;fontSize=12;fontColor=#000000;strokeColor=#333333;html=1;" vertex="1" parent="nik7G5Et6VOTFQyGORWH-207">
          <mxGeometry y="60" width="200" height="22" as="geometry" />
        </mxCell>
        <mxCell id="nik7G5Et6VOTFQyGORWH-209" value="varchar(50)" style="shape=partialRectangle;connectable=0;fillColor=none;top=0;left=0;bottom=0;right=0;editable=1;overflow=hidden;labelBackgroundColor=none;labelBorderColor=none;fontSize=12;fontColor=#000000;strokeColor=#333333;html=1;" vertex="1" parent="nik7G5Et6VOTFQyGORWH-208">
          <mxGeometry width="100" height="22" as="geometry">
            <mxRectangle width="100" height="22" as="alternateBounds" />
          </mxGeometry>
        </mxCell>
        <mxCell id="nik7G5Et6VOTFQyGORWH-210" value="Rol" style="shape=partialRectangle;connectable=0;fillColor=none;top=0;left=0;bottom=0;right=0;align=left;spacingLeft=6;overflow=hidden;labelBackgroundColor=none;labelBorderColor=none;fontSize=12;fontColor=#000000;strokeColor=#333333;html=1;" vertex="1" parent="nik7G5Et6VOTFQyGORWH-208">
          <mxGeometry x="100" width="100" height="22" as="geometry">
            <mxRectangle width="100" height="22" as="alternateBounds" />
          </mxGeometry>
        </mxCell>
        <mxCell id="nik7G5Et6VOTFQyGORWH-220" value="" style="edgeStyle=entityRelationEdgeStyle;fontSize=12;html=1;endArrow=ERoneToMany;rounded=0;fontColor=#000000;exitX=1;exitY=0.5;exitDx=0;exitDy=0;entryX=0;entryY=0.5;entryDx=0;entryDy=0;" edge="1" parent="WIyWlLk6GJQsqaUBKTNV-1" source="nik7G5Et6VOTFQyGORWH-217" target="nik7G5Et6VOTFQyGORWH-192">
          <mxGeometry width="100" height="100" relative="1" as="geometry">
            <mxPoint x="460" y="220" as="sourcePoint" />
            <mxPoint x="560" y="120" as="targetPoint" />
          </mxGeometry>
        </mxCell>
        <mxCell id="nik7G5Et6VOTFQyGORWH-224" value="" style="edgeStyle=entityRelationEdgeStyle;fontSize=12;html=1;endArrow=ERoneToMany;rounded=0;fontColor=#000000;exitX=0.996;exitY=0.306;exitDx=0;exitDy=0;exitPerimeter=0;" edge="1" parent="WIyWlLk6GJQsqaUBKTNV-1" source="nik7G5Et6VOTFQyGORWH-214" target="nik7G5Et6VOTFQyGORWH-201">
          <mxGeometry width="100" height="100" relative="1" as="geometry">
            <mxPoint x="420" y="340" as="sourcePoint" />
            <mxPoint x="800" y="180" as="targetPoint" />
          </mxGeometry>
        </mxCell>
        <mxCell id="nik7G5Et6VOTFQyGORWH-225" value="&lt;font style=&quot;font-size: 14px&quot;&gt;Usuarios_Rol&lt;/font&gt;" style="shape=table;startSize=30;container=1;collapsible=1;childLayout=tableLayout;fixedRows=1;rowLines=0;fontStyle=1;align=center;resizeLast=1;labelBackgroundColor=none;labelBorderColor=none;fontSize=12;fontColor=#000000;strokeColor=#333333;fillColor=#E6E6E6;gradientColor=none;html=1;" vertex="1" parent="WIyWlLk6GJQsqaUBKTNV-1">
          <mxGeometry x="580" y="327" width="200" height="83" as="geometry" />
        </mxCell>
        <mxCell id="nik7G5Et6VOTFQyGORWH-226" value="" style="shape=tableRow;horizontal=0;startSize=0;swimlaneHead=0;swimlaneBody=0;fillColor=none;collapsible=0;dropTarget=0;points=[[0,0.5],[1,0.5]];portConstraint=eastwest;top=0;left=0;right=0;bottom=0;labelBackgroundColor=none;labelBorderColor=#333333;fontSize=12;fontColor=#000000;strokeColor=#333333;html=1;" vertex="1" parent="nik7G5Et6VOTFQyGORWH-225">
          <mxGeometry y="30" width="200" height="22" as="geometry" />
        </mxCell>
        <mxCell id="nik7G5Et6VOTFQyGORWH-227" value="&lt;b&gt;FK &lt;/b&gt;varchar(20)" style="shape=partialRectangle;connectable=0;fillColor=none;top=0;left=0;bottom=0;right=0;editable=1;overflow=hidden;labelBackgroundColor=none;labelBorderColor=none;fontSize=12;fontColor=#000000;strokeColor=#333333;html=1;" vertex="1" parent="nik7G5Et6VOTFQyGORWH-226">
          <mxGeometry width="100" height="22" as="geometry">
            <mxRectangle width="100" height="22" as="alternateBounds" />
          </mxGeometry>
        </mxCell>
        <mxCell id="nik7G5Et6VOTFQyGORWH-228" value="No. Empleado" style="shape=partialRectangle;connectable=0;fillColor=none;top=0;left=0;bottom=0;right=0;align=left;spacingLeft=6;overflow=hidden;labelBackgroundColor=none;labelBorderColor=none;fontSize=12;fontColor=#000000;strokeColor=#333333;html=1;" vertex="1" parent="nik7G5Et6VOTFQyGORWH-226">
          <mxGeometry x="100" width="100" height="22" as="geometry">
            <mxRectangle width="100" height="22" as="alternateBounds" />
          </mxGeometry>
        </mxCell>
        <mxCell id="nik7G5Et6VOTFQyGORWH-229" value="" style="shape=tableRow;horizontal=0;startSize=0;swimlaneHead=0;swimlaneBody=0;fillColor=none;collapsible=0;dropTarget=0;points=[[0,0.5],[1,0.5]];portConstraint=eastwest;top=0;left=0;right=0;bottom=0;labelBackgroundColor=none;labelBorderColor=#333333;fontSize=12;fontColor=#000000;strokeColor=#333333;html=1;" vertex="1" parent="nik7G5Et6VOTFQyGORWH-225">
          <mxGeometry y="52" width="200" height="22" as="geometry" />
        </mxCell>
        <mxCell id="nik7G5Et6VOTFQyGORWH-230" value="&lt;b&gt;FK&lt;/b&gt;&amp;nbsp;UUID" style="shape=partialRectangle;connectable=0;fillColor=none;top=0;left=0;bottom=0;right=0;editable=1;overflow=hidden;labelBackgroundColor=none;labelBorderColor=none;fontSize=12;fontColor=#000000;strokeColor=#333333;html=1;" vertex="1" parent="nik7G5Et6VOTFQyGORWH-229">
          <mxGeometry width="100" height="22" as="geometry">
            <mxRectangle width="100" height="22" as="alternateBounds" />
          </mxGeometry>
        </mxCell>
        <mxCell id="nik7G5Et6VOTFQyGORWH-231" value="ID Rol" style="shape=partialRectangle;connectable=0;fillColor=none;top=0;left=0;bottom=0;right=0;align=left;spacingLeft=6;overflow=hidden;labelBackgroundColor=none;labelBorderColor=none;fontSize=12;fontColor=#000000;strokeColor=#333333;html=1;" vertex="1" parent="nik7G5Et6VOTFQyGORWH-229">
          <mxGeometry x="100" width="100" height="22" as="geometry">
            <mxRectangle width="100" height="22" as="alternateBounds" />
          </mxGeometry>
        </mxCell>
      </root>
    </mxGraphModel>
  </diagram>
</mxfile>
